<?xml version="1.0" encoding="UTF-8"?>
<svg width="190px" height="35px" viewBox="0 0 190 35" version="1.1" xmlns="http://www.w3.org/2000/svg" xmlns:xlink="http://www.w3.org/1999/xlink">
    <!-- Generator: Sketch 54.1 (76490) - https://sketchapp.com -->
    <title>logo-bigdata</title>
    <desc>Created with Sketch.</desc>
    <g id="Page-1" stroke="none" stroke-width="1" fill="none" fill-rule="evenodd">
        <g id="MAIN" transform="translate(-107.000000, -29.000000)" fill-rule="nonzero">
            <g id="main-banner">
                <g id="logo-bigdata" transform="translate(107.000000, 29.650000)">
                    <path d="M75,0.333333333 L82.4761905,0.333333333 C87.6666667,0.333333333 89.7142857,2.80952381 89.7142857,7.71428571 L89.7142857,9.28571429 C89.7142857,12.8095238 88.7142857,15 85.8095238,15.9047619 C89.047619,16.8095238 90.2857143,19.3809524 90.2857143,23.047619 L90.2857143,25.8571429 C90.2857143,30.8571429 87.8571429,33.6666667 82.6666667,33.6666667 L75,33.6666667 L75,0.333333333 Z M78.7142857,14.4761905 L81.5714286,14.4761905 C84.5238095,14.4761905 86.047619,13.5238095 86.047619,10.047619 L86.047619,8.0952381 C86.047619,5.14285714 85.047619,3.71428571 82.3809524,3.71428571 L78.7142857,3.71428571 L78.7142857,14.4761905 Z M78.7142857,30.2857143 L82.6666667,30.2857143 C85.3809524,30.2857143 86.6190476,28.8571429 86.6190476,25.7619048 L86.6190476,22.8095238 C86.6190476,19.0952381 85.1428571,17.8571429 81.952381,17.8571429 L78.7142857,17.8571429 L78.7142857,30.2857143 Z M93.6666667,0.333333333 L97.3809524,0.333333333 L97.3809524,33.6666667 L93.6666667,33.6666667 L93.6666667,0.333333333 Z M108.380952,0 C113.52381,0 115.904762,3.33333333 115.904762,8.38095238 L115.904762,11.2380952 L112.380952,11.2380952 L112.380952,8.19047619 C112.380952,5.19047619 111.190476,3.38095238 108.47619,3.38095238 C105.809524,3.38095238 104.571429,5.19047619 104.571429,8.19047619 L104.571429,25.8095238 C104.571429,28.8095238 105.809524,30.6190476 108.47619,30.6190476 C111.190476,30.6190476 112.380952,28.8095238 112.380952,25.8095238 L112.380952,19.1428571 L108.952381,19.1428571 L108.952381,15.8095238 L115.904762,15.8095238 L115.904762,25.6190476 C115.904762,30.6666667 113.52381,34 108.380952,34 C103.285714,34 100.904762,30.6666667 100.904762,25.6190476 L100.904762,8.38095238 C100.904762,3.33333333 103.285714,0 108.380952,0 Z M119.428571,0.333333333 L127.238095,0.333333333 C132.428571,0.333333333 134.809524,3.47619048 134.809524,8.61904762 L134.809524,25.4285714 C134.809524,30.5238095 132.428571,33.6666667 127.238095,33.6666667 L119.428571,33.6666667 L119.428571,0.333333333 Z M123.142857,30.2857143 L127.190476,30.2857143 C129.857143,30.2857143 131.142857,28.6190476 131.142857,25.5714286 L131.142857,8.42857143 C131.142857,5.38095238 129.857143,3.71428571 127.142857,3.71428571 L123.142857,3.71428571 L123.142857,30.2857143 Z M150.428571,26.952381 L142,26.952381 L140.714286,33.6666667 L137.285714,33.6666667 L143.666667,0.333333333 L149.047619,0.333333333 L155.428571,33.6666667 L151.714286,33.6666667 L150.428571,26.952381 Z M146.142857,4.52380952 L142.47619,23.7619048 L149.904762,23.7619048 L146.142857,4.52380952 Z M165,33.6666667 L161.333333,33.6666667 L161.333333,3.71428571 L155.190476,3.71428571 L155.190476,0.333333333 L171.142857,0.333333333 L171.142857,3.71428571 L165,3.71428571 L165,33.6666667 Z M184.047619,26.952381 L175.619048,26.952381 L174.333333,33.6666667 L170.904762,33.6666667 L177.285714,0.333333333 L182.666667,0.333333333 L189.047619,33.6666667 L185.333333,33.6666667 L184.047619,26.952381 Z M179.761905,4.52380952 L176.095238,23.7619048 L183.52381,23.7619048 L179.761905,4.52380952 Z" id="bigdata" fill="#FFFFFF"></path>
                    <g id="logo" transform="translate(-0.000000, 0.350000)" fill="#00F5FF">
                        <path d="M60,10.3192982 L41.82,10.3192982 L41.58,10.3192982 L50.82,0 L30.48,0 L27.6,0 L9.18,0 L18.36,10.3192982 L0,10.3192982 L10.2,21.7122807 L20.82,33.6421053 L30,23.322807 L39.18,33.6421053 L49.2,22.4280702 L60,10.3192982 Z M27.6,2.14736842 L20.82,9.78245614 L14.04,2.14736842 L27.6,2.14736842 Z M55.2,12.4666667 L48.36,20.0421053 L41.58,12.4666667 L55.2,12.4666667 Z M20.82,13.0035088 L27.6,20.5789474 L14.04,20.5789474 L20.82,13.0035088 Z M23.22,12.4666667 L36.78,12.4666667 L30,20.0421053 L23.22,12.4666667 Z M39.18,13.0035088 L45.96,20.5789474 L32.4,20.5789474 L39.18,13.0035088 Z M30,2.74385965 L36.78,10.3192982 L23.22,10.3192982 L30,2.74385965 Z M39.18,9.78245614 L32.4,2.14736842 L45.96,2.14736842 L39.18,9.78245614 Z M18.42,12.4666667 L11.64,20.0421053 L4.8,12.4666667 L18.42,12.4666667 Z M27.6,22.7859649 L20.82,30.3614035 L14.04,22.7859649 L27.6,22.7859649 Z M45.96,22.7859649 L39.18,30.3614035 L32.4,22.7859649 L45.96,22.7859649 Z"></path>
                    </g>
                </g>
            </g>
        </g>
    </g>
</svg>